# xmcd CD database file
#
# Track frame offsets:
#	150
#	14325
#	30880
#	47187
#	63810
#	76152
#
# Disc length: 1249 seconds
#
# Revision: 0
# Processed by: cddbd v1.4PL0 Copyright (c) Steve Scherf et al.
# Submitted via: CDex 1.50
#
DISCID=3804df06
DTITLE=Exile - Something Good
DYEAR=1997
DGENRE=Country
TTITLE0=Woke Up In Love
TTITLE1=High Cost of Leaving
TTITLE2=She's a Miracle
TTITLE3=I Don't Want to Be a Memory
TTITLE4=I Could Get Used To You
TTITLE5=I got Love (Super-Duper Love)
EXTD=YEAR: 1997
EXTT0=
EXTT1=
EXTT2=
EXTT3=
EXTT4=
EXTT5=
PLAYORDER=
